<svg xmlns="http://www.w3.org/2000/svg" id="camera" x="0" y="0"  width="30" height="30" version="1.1" viewBox="0 0 29 29" xml:space="preserve"><circle cx="14.5" cy="16.5" r="3.5"></circle><path d="M25 8h-3.279a1 1 0 0 1-.949-.684l-.316-.949A2 2 0 0 0 18.558 5h-8.117a2 2 0 0 0-1.897 1.368l-.316.948A1 1 0 0 1 7.279 8H4a2 2 0 0 0-2 2v12a2 2 0 0 0 2 2h21a2 2 0 0 0 2-2V10a2 2 0 0 0-2-2zM14.5 22C11.468 22 9 19.532 9 16.5s2.468-5.5 5.5-5.5 5.5 2.468 5.5 5.5-2.468 5.5-5.5 5.5zm6-10a1 1 0 1 1 0-2 1 1 0 0 1 0 2z"></path><path d="M5.5 7h-2a.5.5 0 0 1 0-1h2a.5.5 0 0 1 0 1z"></path></svg>